<?xml version="1.0" encoding="UTF-8" standalone="no"?>
<!-- Created with Inkscape (http://www.inkscape.org/) -->

<svg
   width="45.980461mm"
   height="77.69352mm"
   viewBox="0 0 45.980461 77.69352"
   version="1.1"
   id="svg1"
   xml:space="preserve"
   inkscape:version="1.3.1 (91b66b0783, 2023-11-16)"
   sodipodi:docname="sbrul-shad-v1.svg"
   xmlns:inkscape="http://www.inkscape.org/namespaces/inkscape"
   xmlns:sodipodi="http://sodipodi.sourceforge.net/DTD/sodipodi-0.dtd"
   xmlns="http://www.w3.org/2000/svg"
   xmlns:svg="http://www.w3.org/2000/svg"><sodipodi:namedview
     id="namedview1"
     pagecolor="#505050"
     bordercolor="#ffffff"
     borderopacity="1"
     inkscape:showpageshadow="0"
     inkscape:pageopacity="0"
     inkscape:pagecheckerboard="1"
     inkscape:deskcolor="#505050"
     inkscape:document-units="mm"
     inkscape:zoom="2.9757807"
     inkscape:cx="174.07197"
     inkscape:cy="165.50279"
     inkscape:window-width="2560"
     inkscape:window-height="1377"
     inkscape:window-x="1192"
     inkscape:window-y="193"
     inkscape:window-maximized="1"
     inkscape:current-layer="layer1" /><defs
     id="defs1" /><g
     inkscape:label="Layer 1"
     inkscape:groupmode="layer"
     id="layer1"
     transform="translate(-44.263168,-72.632443)"><path
       style="fill:#000000;stroke:#000000;stroke-width:0.264583px;stroke-linecap:butt;stroke-linejoin:miter;stroke-opacity:1"
       d="m 44.367209,91.846345 c 17.638073,-22.45833 25.69175,-15.11968 25.696037,-9.246629 0.0043,5.873052 7.542088,0.923173 19.382468,-9.869503 -19.723465,30.018047 -25.992041,15.713299 -25.962375,9.869257 0.02967,-5.844042 -19.11613,9.246875 -19.11613,9.246875 z"
       id="path1"
       sodipodi:nodetypes="czczc" /><path
       style="fill:#000000;stroke:#000000;stroke-width:0.264583px;stroke-linecap:butt;stroke-linejoin:miter;stroke-opacity:1"
       d="m 44.722856,97.092166 c 16.613917,0.574486 18.204814,2.975824 21.516763,8.891224 3.934335,-5.64319 7.046028,-8.379127 23.295007,-8.713398 -5.801257,-5.224445 -14.763908,-5.29217 -22.672622,3.289748 -7.019591,-8.489232 -14.74676,-8.309847 -22.139148,-3.467574 z"
       id="path2"
       sodipodi:nodetypes="ccccc" /><path
       style="fill:#000000;stroke:#000000;stroke-width:0.264583px;stroke-linecap:butt;stroke-linejoin:miter;stroke-opacity:1"
       d="m 45.094943,112.55073 c 16.613917,0.57449 18.204814,2.97583 21.516763,8.89123 3.934335,-5.64319 7.046028,-8.37913 23.295007,-8.7134 -5.801257,-5.22445 -14.763908,-5.29218 -22.672622,3.28975 -7.019591,-8.48924 -14.74676,-8.30985 -22.139148,-3.46758 z"
       id="path2-2"
       sodipodi:nodetypes="ccccc" /><path
       style="fill:#000000;stroke:#000000;stroke-width:0.264583px;stroke-linecap:butt;stroke-linejoin:miter;stroke-opacity:1"
       d="m 60.193586,124.56605 c 4.598079,3.30005 7.723822,3.46245 13.070099,-0.35565 -2.566913,5.51769 -2.927258,21.14038 -5.690383,25.78455 -1.340529,-4.69161 -4.153518,-20.90467 -7.379716,-25.4289 z"
       id="path3"
       sodipodi:nodetypes="cccc" /></g></svg>
